<svg viewBox="-106 0 511 511.99963" xmlns="http://www.w3.org/2000/svg"><path d="m150.976562 164.632812c-4.203124 0-7.609374-3.40625-7.609374-7.609374v-122.84375c0-7.378907 4.664062-14.015626 11.605468-16.515626l48.050782-17.214843c3.960937-1.417969 8.3125.640625 9.730468 4.597656 1.417969 3.957031-.640625 8.316406-4.597656 9.734375l-48.035156 17.210938c-.910156.328124-1.53125 1.207031-1.53125 2.1875v122.84375c0 4.203124-3.40625 7.609374-7.613282 7.609374zm0 0" fill="#ea3942"/><path d="m283.179688 157.042969h-265.433594l41.449218 345.375c.65625 5.464843 5.292969 9.582031 10.800782 9.582031h160.933594c5.503906 0 10.144531-4.117188 10.800781-9.582031zm0 0" fill="#f3e8d7"/><path d="m70.832031 161.65625h-52.53125l40.894531 340.761719c.65625 5.464843 5.292969 9.582031 10.800782 9.582031h25.335937zm0 0" fill="#fc4e51"/><path d="m132.085938 512h36.753906l8.164062-350.34375h-53.085937zm0 0" fill="#fc4e51"/><path d="m282.625 161.65625h-52.53125l-24.5 350.34375h25.335938c5.507812 0 10.144531-4.117188 10.800781-9.582031zm0 0" fill="#ea3942"/><path d="m255.667969 108.480469h-210.410157c-2.996093 0-5.578124 2.105469-6.183593 5.039062l-9.664063 46.839844h242.105469l-9.664063-46.839844c-.605468-2.933593-3.1875-5.039062-6.183593-5.039062zm0 0" fill="#f3e8d7"/><path d="m261.851562 113.519531c-.605468-2.933593-3.1875-5.039062-6.183593-5.039062h-52.644531l1.464843 4.898437c1.183594 5.738282-3.199219 11.121094-9.0625 11.121094l-158.609375-.027344-7.402344 35.886719h242.101563zm0 0" fill="#e5d8c6"/><path d="m291.132812 183.023438h-281.339843c-5.132813 0-9.292969-4.160157-9.292969-9.292969v-24.644531c0-5.132813 4.160156-9.296876 9.292969-9.296876h281.339843c5.132813 0 9.292969 4.164063 9.292969 9.296876v24.644531c0 5.132812-4.160156 9.292969-9.292969 9.292969zm0 0" fill="#f3e8d7"/><path d="m291.132812 139.789062h-49.230468v18.203126c0 6.164062-4.996094 11.160156-11.160156 11.160156h-220.949219c-5.132813 0-9.292969-4.160156-9.292969-9.292969v13.871094c0 5.132812 4.160156 9.292969 9.292969 9.292969h281.339843c5.132813 0 9.292969-4.160157 9.292969-9.292969v-24.644531c0-5.132813-4.160156-9.296876-9.292969-9.296876zm0 0" fill="#e5d8c6"/><path d="m227.742188 334.253906c0 42.683594-34.597657 77.28125-77.28125 77.28125-42.679688 0-77.277344-34.597656-77.277344-77.28125 0-42.679687 34.597656-77.28125 77.277344-77.28125 42.683593 0 77.28125 34.601563 77.28125 77.28125zm0 0" fill="#efa335"/><path d="m226.949219 345.273438c.511719-3.601563.792969-7.277344.792969-11.019532 0-1.707031-.074219-3.394531-.183594-5.078125-12.144532 4.230469-36.519532 7.941407-73.410156-7.875-36.347657-15.574219-63.585938-7.199219-80.292969 2.890625-.429688 3.292969-.671875 6.648438-.671875 10.0625 0 2.929688.175781 5.816406.496094 8.664063 14.40625-11.875 39.015624-22.816407 74.46875-7.625 12.914062 5.535156 34.0625 12.777343 56.304687 12.777343 7.464844 0 15.054687-.828124 22.496094-2.796874zm0 0" fill="#fccf3f"/></svg>