<svg viewBox="-33 0 511 511.9996" xmlns="http://www.w3.org/2000/svg"><path d="m390.738281 153.660156c.03125.058594.066407.117188.101563.171875 1.097656 1.804688.601562 4.148438-1.144532 5.332031l-69.9375 47.382813 17.683594 26.101563 69.9375-47.382813c1.75-1.183594 4.109375-.773437 5.378906.914063.039063.050781.078126.105468.117188.15625 5.746094 7.480468 16.339844 9.453124 24.394531 4.546874 9.140625-5.570312 11.675781-17.574218 5.742188-26.332031-4.59375-6.78125-10.796875-8.160156-15.976563-7.777343-2.933594.21875-4.992187-2.78125-3.726562-5.4375 2.253906-4.71875 3.296875-11-1.164063-17.585938-5.933593-8.753906-18.015625-10.851562-26.578125-4.433594-7.546875 5.660156-9.644531 16.230469-4.828125 24.34375zm0 0" fill="#dfede7"/><path d="m211.015625 229.007812 17.285156 17.285157c6.851563 6.855469 17.367188 8.570312 25.972657 4.121093 17.253906-8.917968 35.84375-15.3125 55.144531-19.050781 13.460937-2.605469 26.3125-9.121093 36.738281-19.546875 28.039062-28.039062 27.800781-73.648437-.722656-101.386718-27.910156-27.144532-72.980469-26.648438-100.316406 1.074218-10.226563 10.375-16.625 23.109375-19.195313 36.433594-3.71875 19.289062-10.109375 37.855469-19.019531 55.089844-4.453125 8.609375-2.742188 19.125 4.113281 25.980468zm0 0" fill="#efa335"/><path d="m345.433594 110.429688c-7.847656-7.636719-17.054688-13.082032-26.84375-16.355469 8.332031 24.808593 2.636718 53.292969-17.121094 73.054687-10.425781 10.421875-23.277344 16.9375-36.738281 19.542969-19.304688 3.738281-37.890625 10.132813-55.144531 19.050781-1.410157.730469-2.878907 1.277344-4.367188 1.679688-2.050781 7.59375.070312 15.875 5.796875 21.605468l17.289063 17.285157c6.851562 6.855469 17.363281 8.570312 25.972656 4.121093 17.25-8.917968 35.839844-15.3125 55.144531-19.050781 13.457031-2.605469 26.3125-9.121093 36.734375-19.546875 28.039062-28.039062 27.800781-73.648437-.722656-101.386718zm0 0" fill="#fd8f31"/><path d="m28.832031 119.496094c.046875-.042969.09375-.082032.140625-.125 1.449219-1.289063 3.652344-1.230469 5.011719.15625l54.457031 55.4375 20.691406-20.320313-54.457031-55.441406c-1.359375-1.386719-1.378906-3.589844-.0625-5.015625.039063-.042969.082031-.089844.121094-.132812 5.820313-6.4375 5.851563-16.347657.078125-22.824219-6.554688-7.351563-17.835938-7.660157-24.777344-.839844-5.375 5.28125-5.597656 11.121094-4.390625 15.742187.683594 2.621094-1.691406 4.980469-4.304687 4.273438-4.644532-1.257812-10.5-1.160156-15.71875 3.964844-6.941406 6.820312-6.839844 18.101562.386718 24.785156 6.371094 5.890625 16.285157 6.039062 22.824219.339844zm0 0" fill="#dfede7"/><path d="m102.671875 149.441406-19.332031 18.984375c-7.660156 7.527344-9.664063 19.160157-4.820313 28.742188 9.710938 19.210937 16.613281 39.871093 20.5625 61.304687 2.757813 14.941406 9.847657 29.25 21.296875 40.90625 30.796875 31.351563 81.347656 31.539063 112.371094.207032 30.359375-30.664063 30.257812-80.617188-.195312-111.183594-11.394532-11.441406-25.445313-18.660156-40.183594-21.636719-21.339844-4.3125-41.855469-11.578125-60.867188-21.628906-9.5-5.019531-21.167968-3.226563-28.832031 4.304687zm0 0" fill="#efa335"/><path d="m232.550781 188.402344c-11.394531-11.441406-25.441406-18.660156-40.183593-21.636719-21.339844-4.3125-41.851563-11.578125-60.863282-21.628906-9.5-5.019531-21.167968-3.226563-28.832031 4.300781l-19.332031 18.988281c-1.597656 1.566407-2.933594 3.320313-4.027344 5.191407 22.304688 13.691406 47.046875 23.328124 73.019531 28.574218 28.234375 5.707032 53.921875 26.957032 63.308594 63.636719 2.351563 9.195313 2.402344 18.847656-.046875 28.019531-2.328125 8.703125-5.5625 16.527344-9.515625 23.46875 9.714844-3.898437 18.820313-9.800781 26.671875-17.730468 30.359375-30.664063 30.257812-80.613282-.199219-111.183594zm0 0" fill="#fd8f31"/><path d="m209.289062 138.988281s19.820313-19.429687 43.917969-46.632812c24.09375-27.207031 27.722657-86.667969 20.984375-91.808594-6.734375-5.144531-19.171875 26.902344-44.5625 60.585937-7.203125 9.558594-18.332031 16.484376-30.253906 23.035157-2.394531 1.3125-5.265625-.542969-5.109375-3.269531.253906-4.417969-.359375-9.355469-4.519531-8.808594-5.101563.671875-18.097656 18.503906-25.640625 29.460937-3.261719 4.734375-6.960938 9.144531-10.988281 13.242188-10.71875 10.894531-14.054688 23.699219-8.988282 47.902343 13.992188 66.847657 75.65625 71.507813 129.027344 74.617188s80.347656-3.847656 80.347656-3.847656c0-85.589844-144.214844-94.476563-144.214844-94.476563zm0 0" fill="#fccf3f"/><path d="m209.289062 138.988281s19.820313-19.429687 43.917969-46.632812c22.652344-25.578125 27.214844-79.660157 22.082031-90.316407-8.207031 28.3125-39.929687 91.289063-85.222656 115.1875-.320312.167969-.640625.339844-.960937.511719-23.527344 12.757813-19.238281 47.828125 6.695312 54.441407 35.792969 9.128906 79.78125 27.878906 91.550781 65.753906 43.957032 1.257812 66.152344-4.46875 66.152344-4.46875 0-85.589844-144.214844-94.476563-144.214844-94.476563zm0 0" fill="#efc03c"/><path d="m59.011719 211.796875 43.921875 286.675781c1.191406 7.78125 7.882812 13.527344 15.753906 13.527344h224.277344c7.871094 0 14.5625-5.746094 15.757812-13.527344l43.917969-286.675781zm0 0" fill="#fc4e51"/><path d="m341.867188 211.796875-43.921876 286.675781c-1.191406 7.78125-7.882812 13.527344-15.757812 13.527344h60.777344c7.871094 0 14.5625-5.746094 15.757812-13.527344l43.921875-286.675781zm0 0" fill="#ea3942"/><g fill="#f3e8d7"><path d="m249.125 512h-36.597656l-6.328125-298.261719h49.257812zm0 0"/><path d="m175.933594 512h-36.597656l-31.652344-298.261719h49.257812zm0 0"/><path d="m322.316406 512h-36.59375l18.992188-298.261719h49.253906zm0 0"/></g><path d="m341.867188 211.796875-43.921876 286.675781c-1.191406 7.78125-7.882812 13.527344-15.757812 13.527344h60.777344c7.871094 0 14.5625-5.746094 15.757812-13.527344l43.921875-286.675781zm0 0" fill="#ea3942"/><path d="m322.320312 512 31.648438-298.261719h-12.398438l-43.625 284.734375c-1.007812 6.574219-5.945312 11.679688-12.195312 13.109375l-.027344.417969zm0 0" fill="#e5d8c6"/><path d="m405.460938 244.714844h-349.269532c-10.265625 0-18.589844-8.324219-18.589844-18.589844 0-10.269531 8.324219-18.589844 18.589844-18.589844h349.269532c10.269531 0 18.589843 8.320313 18.589843 18.589844.003907 10.265625-8.320312 18.589844-18.589843 18.589844zm0 0" fill="#fc4e51"/><path d="m405.460938 207.53125h-42.894532v37.183594h42.894532c10.269531 0 18.589843-8.324219 18.589843-18.589844.003907-10.269531-8.320312-18.59375-18.589843-18.59375zm0 0" fill="#ea3942"/><path d="m382.988281 340.09375h-304.320312l7.613281 49.699219h289.089844zm0 0" fill="#f3e8d7"/><path d="m314.597656 389.792969h60.773438l7.617187-49.699219h-60.777343zm0 0" fill="#e5d8c6"/><path d="m299.375 366.421875c0 37.859375-30.691406 68.546875-68.546875 68.546875-37.859375 0-68.546875-30.6875-68.546875-68.546875 0-37.855469 30.6875-68.546875 68.546875-68.546875 37.855469 0 68.546875 30.691406 68.546875 68.546875zm0 0" fill="#efa335"/><path d="m252.261719 301.3125c2.21875 6.746094 3.4375 13.945312 3.4375 21.433594 0 37.859375-30.691407 68.546875-68.546875 68.546875-7.488282 0-14.6875-1.214844-21.433594-3.433594 9 27.355469 34.738281 47.109375 65.109375 47.109375 37.855469 0 68.546875-30.6875 68.546875-68.546875 0-30.367187-19.757812-56.105469-47.113281-65.109375zm0 0" fill="#fd8f31"/></svg>