<svg viewBox="-3 0 511 512" xmlns="http://www.w3.org/2000/svg"><path d="m61.410156 296.714844h54.320313v15.21875h-54.320313zm0 0" fill="#0d6e9a"/><path d="m294.128906 102.3125h15.136719v190.078125h-15.136719zm0 0" fill="#0d6e9a"/><path d="m340.917969 179.441406h147.507812v110.109375h-147.507812zm0 0" fill="#e2e2e2"/><path d="m429.902344 179.441406h58.523437v110.109375h-58.523437zm0 0" fill="#c9c9c9"/><path d="m301.871094 0c-.070313 0-.144532 0-.21875 0-.074219 0-.144532 0-.21875 0 0 0-158.34375 13.96875-182.742188 72.5v13.511719c0 14.433593 11.703125 26.136719 26.136719 26.136719 14.4375 0 26.140625-11.703126 26.140625-26.136719 0 14.433593 11.699219 26.136719 26.136719 26.136719 14.433593 0 26.136719-11.703126 26.136719-26.136719 0 14.433593 11.699218 26.136719 26.136718 26.136719 14.433594 0 26.136719-11.703126 26.136719-26.136719 0 14.433593 11.703125 26.136719 26.136719 26.136719s26.136718-11.703126 26.136718-26.136719c0 14.433593 11.703126 26.136719 26.136719 26.136719 14.433594 0 26.136719-11.703126 26.136719-26.136719 0 14.433593 11.703125 26.136719 26.136719 26.136719 14.4375 0 26.136719-11.703126 26.136719-26.136719 0 14.433593 11.703124 26.136719 26.136718 26.136719 14.4375 0 26.136719-11.703126 26.136719-26.136719v-13.511719c-24.390625-58.53125-182.738281-72.5-182.738281-72.5zm0 0" fill="#fd8f31"/><path d="m62.488281 318.40625h-55.476562c-3.597657 0-6.511719-2.914062-6.511719-6.507812v-15.144532c0-3.597656 2.914062-6.511718 6.511719-6.511718h55.476562c3.597657 0 6.511719 2.914062 6.511719 6.511718v15.144532c0 3.59375-2.914062 6.507812-6.511719 6.507812zm0 0" fill="#d87e35"/><path d="m301.871094 0c-.070313 0-.144532 0-.21875 0-.074219 0-.144532 0-.21875 0 0 0-11.617188 1.023438-29.042969 3.683594 46.910156 7.152344 135.914063 26.136718 153.699219 68.816406h58.523437c-24.394531-58.53125-182.742187-72.5-182.742187-72.5zm0 0" fill="#ef802e"/><path d="m144.832031 112.148438c-14.4375 0-26.136719-11.703126-26.136719-26.136719v-13.511719h52.273438v13.511719c0 14.433593-11.703125 26.136719-26.136719 26.136719zm0 0" fill="#ffc064"/><path d="m197.105469 112.148438c-14.433594 0-26.136719-11.703126-26.136719-26.136719v-13.511719h52.273438v13.511719c0 14.433593-11.703126 26.136719-26.136719 26.136719zm0 0" fill="#efa335"/><path d="m249.378906 112.148438c-14.433594 0-26.136718-11.703126-26.136718-26.136719v-13.511719h52.273437v13.511719c0 14.433593-11.703125 26.136719-26.136719 26.136719zm0 0" fill="#ffc064"/><path d="m301.652344 112.148438c-14.433594 0-26.136719-11.703126-26.136719-26.136719v-13.511719h52.273437v13.511719c0 14.433593-11.699218 26.136719-26.136718 26.136719zm0 0" fill="#efa335"/><path d="m353.925781 112.148438c-14.433593 0-26.136719-11.703126-26.136719-26.136719v-13.511719h52.273438v13.511719c0 14.433593-11.699219 26.136719-26.136719 26.136719zm0 0" fill="#ffc064"/><path d="m406.199219 112.148438c-14.433594 0-26.136719-11.703126-26.136719-26.136719v-13.511719h52.277344v13.511719c0 14.433593-11.703125 26.136719-26.140625 26.136719zm0 0" fill="#efa335"/><path d="m458.476562 112.148438c-14.4375 0-26.136718-11.703126-26.136718-26.136719v-13.511719h52.273437v13.511719c0 14.433593-11.703125 26.136719-26.136719 26.136719zm0 0" fill="#ffc064"/><path d="m491.609375 179.441406h-153.875c-2.453125 0-4.441406 1.988282-4.441406 4.441406v16.984376c0 2.453124 1.988281 4.441406 4.441406 4.441406h153.875c2.453125 0 4.441406-1.988282 4.441406-4.441406v-16.984376c0-2.453124-1.988281-4.441406-4.441406-4.441406zm0 0" fill="#fc4e51"/><path d="m491.609375 179.441406h-54.082031v25.871094h54.082031c2.453125 0 4.441406-1.988281 4.441406-4.441406v-16.988282c0-2.453124-1.988281-4.441406-4.441406-4.441406zm0 0" fill="#ea3942"/><path d="m501.148438 446.359375h-398.992188c-2.050781 0-3.71875-1.664063-3.71875-3.714844v-163.246093c0-2.054688 1.664062-3.71875 3.71875-3.71875h398.992188c2.054687 0 3.71875 1.664062 3.71875 3.71875v163.246093c0 2.050781-1.664063 3.714844-3.71875 3.714844zm0 0" fill="#fc4e51"/><path d="m501.148438 275.679688h-54.234376v170.679687h54.234376c2.054687 0 3.71875-1.664063 3.71875-3.714844v-163.246093c0-2.054688-1.664063-3.71875-3.71875-3.71875zm0 0" fill="#ea3942"/><path d="m501.148438 275.679688h-398.992188c-2.050781 0-3.71875 1.664062-3.71875 3.71875v24.925781h406.429688v-24.925781c0-2.054688-1.664063-3.71875-3.71875-3.71875zm0 0" fill="#ffc064"/><path d="m501.148438 275.679688h-54.234376v28.644531h57.953126v-24.925781c0-2.054688-1.664063-3.71875-3.71875-3.71875zm0 0" fill="#efa335"/><path d="m429.355469 418.363281c-25.855469 0-46.816407 20.960938-46.816407 46.820313 0 25.855468 20.960938 46.816406 46.816407 46.816406 25.859375 0 46.820312-20.960938 46.820312-46.816406 0-25.859375-20.960937-46.820313-46.820312-46.820313zm0 0" fill="#31363b"/><path d="m429.355469 446.886719c-10.101563 0-18.292969 8.191406-18.292969 18.296875 0 10.101562 8.191406 18.292968 18.292969 18.292968 10.105469 0 18.296875-8.191406 18.296875-18.292968 0-10.105469-8.191406-18.296875-18.296875-18.296875zm0 0" fill="#e2e2e2"/><path d="m167.136719 418.363281c-25.855469 0-46.816407 20.960938-46.816407 46.820313 0 25.855468 20.960938 46.816406 46.816407 46.816406 25.859375 0 46.820312-20.960938 46.820312-46.816406 0-25.859375-20.960937-46.820313-46.820312-46.820313zm0 0" fill="#31363b"/><path d="m167.136719 446.886719c-10.101563 0-18.292969 8.191406-18.292969 18.296875 0 10.101562 8.191406 18.292968 18.292969 18.292968 10.105469 0 18.296875-8.191406 18.296875-18.292968 0-10.105469-8.191406-18.296875-18.296875-18.296875zm0 0" fill="#e2e2e2"/></svg>